<?xml version="1.0" encoding="UTF-8"?>
<svg id="Layer_2" data-name="Layer 2" xmlns="http://www.w3.org/2000/svg" viewBox="0 0 357.38 412.42">
  <defs>
    <style>
      .cls-1 {
        fill: #f2f2f2;
      }
    </style>
  </defs>
  <g id="Layer_1-2" data-name="Layer 1">
    <g>
      <path class="cls-1" d="M288.22,301.8c15.16-63.46-14.92-91.67-14.92-91.67,11.23-3.36,30.89,3.38,30.89,3.38-23.59-38.19-79.73-58.96-79.73-58.96l19.65-16.28c-30.89-10.1-59.57-9.19-59.57-9.19C214.85,80.96,236.85,0,236.85,0c-20.15,35-48.53,76.99-84.96,118.03-21.76,24.52-43.43,45.48-63.83,63.26,1.87,71.49-33.32,92.29-33.32,92.29-.13,1.5,11.99,23.1,35.19,22.83,23.17-33.83,56.86-38.3,56.86-38.3l-8.85-13.76s28.79-34.12,71.84-31.72c0,0-.81-16.25-27.96-42.94.57.19,27.21,15.97,34.55,21.61,64.53,49.62-74.62,145.88-28.01,221.13,1.23-15.69,6.91-38.55,26.54-60.42,0,0-12.11,30.85-1.32,57.56,27.71-5.57,53.98-17.96,75.88-35.28-33.53-16.35-25.15-93.04-23.33-98.31l22.09,25.83ZM127.31,183.63c-1.23,9.42-3.45,22.8-6.42,25.34-4.61,3.94-20.12,14.58-20.61,14.91.14-.65,5.88-24.92,7.16-28.1.67-1.66,6.23-7.38,11.46-12.52l.92-.9c2.34-2.3,4.55-4.42,6.15-5.93l1.15-1.1.6-.58,7.77-7.51-8.19,16.39Z"/>
      <path class="cls-1" d="M203.43,268.69c-70.37,100.96-40.79,141.94-40.45,143.16C71.54,404.11,0,327.58,0,234.17,0,160.63,44.64,97.36,108.24,69.98,32.18,120.13,22.25,189.51,25.29,234.17c4.65,68.28,33.49,104.84,67.97,126.78,1.2,12.18,7.47,21.01,7.47,21.01-.32-5.62,1.76-12.91,4.12-19.18.02-.08.05-.15.09-.23,1.55-3.99,3.44-8.3,5.72-12.85.03-.05.05-.1.08-.14.04-.09.08-.16.11-.22.03-.06.04-.09.05-.11h0s.01-.01.01-.01c9.56-18.95,25.83-41.94,53.45-63.41,57.05-44.37,57.08-66.75,56.85-67.52.53.75,6.39,15.72-17.78,50.4Z"/>
      <path class="cls-1" d="M150.63,97.69l-24.47,31.37c5.97-12.8,12.26-28.94,17.01-48.1,4.5-18.15,6.52-34.52,7.32-48.1,1.1,6.09,7.47,40.04.14,64.83Z"/>
      <path class="cls-1" d="M357.38,234.18c0,43.2-15.4,82.86-41.02,113.79-4.72,5.71-9.8,11.12-15.18,16.2-6.21-3.6-25.16-18.09-23.66-54.21,1.69,3.13,4.31,7.2,8.28,11.28,4.61,4.75,9.3,7.73,12.72,9.54,11.09-14.49,30.97-49.51,33.58-96.61,6.57-118.6-89.47-166.87-89.45-166.86.35.13.69.26,1.03.41,66.5,26.04,113.71,90.83,113.71,166.45Z"/>
    </g>
  </g>
</svg>