<svg viewBox="0 0 378.57 150" version="1.1" xmlns="http://www.w3.org/2000/svg" id="Layer_1">
  
  <defs>
    <style>
      .st0 {
        fill: none;
      }

      .st1 {
        fill: #c8202f;
      }

      .st2 {
        fill: #bdbec0;
      }
    </style>
  </defs>
  <path d="M301.23,40.94c.15-.53.54-1.83.92-3.12h-30.92c-.29.92-1.7,5.63-2.16,7.14h22.66c.19-.08,8.92-3.79,9.5-4.02Z" class="st0"></path>
  <path d="M135.36,28.97h-12.2s-1.11,3.73-1.3,4.39c-.56.31-18.36,10.46-19.04,10.85-.58-.51-11.07-9.57-12.05-10.4.33-1.07,1.46-4.83,1.46-4.83h-12.23l-2.5,8.4s16.18,14.02,17.2,14.9c-.42,1.41-3.06,10.23-3.06,10.23h12.2s2.75-9.19,2.97-9.94c.57-.32,25.89-14.8,25.89-14.8l2.64-8.78Z" class="st1"></path>
  <path d="M194.58,48.89l-4.08,13.61h55.35l2.65-8.84h-42.01c2.67-1.14,18.51-7.78,18.51-7.78,0,0-12.62-7.04-14.47-8.05h42.73l2.64-8.85h-55.35l-3.96,13.2s3.87,2.18,5.97,3.4c-2.58,1.06-7.98,3.32-7.98,3.32Z" class="st1"></path>
  <polygon points="19.83 28.97 9.78 62.5 21.91 62.5 31.95 28.97 19.83 28.97" class="st1"></polygon>
  <path d="M62.9,28.97s-3.35,11.17-3.71,12.33h-27.76l-2.67,8.86h27.78c-.69,2.28-3.71,12.33-3.71,12.33h12.21l10.04-33.52h-12.19Z" class="st1"></path>
  <path d="M194.95,28.97h-55.32l-10.09,33.52h12.22l7.41-24.68h30.93c-.16.52-.67,2.2-.84,2.77-.54.22-10.19,4.28-10.4,4.36h-18.67l-2.65,8.84h23.29l19.08-8.02,5.04-16.81Z" class="st1"></path>
  <g>
    <path d="M302.15,37.82h-30.92c-.29.92-1.7,5.63-2.16,7.14h22.66c.19-.08,8.92-3.79,9.5-4.02.15-.53.54-1.83.92-3.12Z" class="st0"></path>
    <path d="M254.98,51.28l-3.36,11.22h12.2s2.08-6.97,2.56-8.51c-3.67-1.02-7.47-1.91-11.39-2.71Z" class="st1"></path>
    <path d="M311.85,46.18l5.16-17.2h-55.36l-4.78,15.97c11.19.39,25.52,2.13,40.47,7.15l14.5-5.91ZM269.07,44.96c.46-1.51,1.87-6.22,2.16-7.14h30.92c-.38,1.29-.77,2.59-.92,3.12-.58.23-9.3,3.94-9.5,4.02h-22.66Z" class="st1"></path>
    <path d="M336.08,73.94c12.77-12.44,21.49-29.28,23.06-52.07,0,0-5.21,22.66-33.18,44.29-9.34-6.36-19.1-10.87-28.61-14.07-14.95-5.02-29.29-6.75-40.47-7.15-13.36-.47-22.24.95-22.24.95,33.09,2.36,60.09,13.79,81.09,27.44-26.2,16.64-67.7,31-133.1,31.48,0,0,93.61,14.11,144.6-23.37,29.4,22.41,43.97,47,43.97,47-8.3-24.63-20.87-42.12-35.13-54.49Z" class="st2"></path>
  </g>
</svg>