<svg class="hidden laptop:block desktop:hidden h-5 w-34 transition group-hover:text-text-secondary laptop:h-7 laptop:w-7 desktop:h-8.5 desktop:w-56" aria-labelledby="steelseries-logo-header" role="img" fill="currentColor" xmlns="http://www.w3.org/2000/svg" viewBox="0 0 28 27"><desc id="steelseries-logo-header" class="sr-only">SteelSeries logo</desc><path d="M17.72,4.91V2a2,2,0,1,0-4,0V4.91a11.08,11.08,0,0,0-8.86,8.86H2a2,2,0,0,0,0,4H4.81A11.07,11.07,0,1,0,17.72,4.91Zm-2,17.91a7,7,0,1,1,7-7A7,7,0,0,1,15.72,22.82Z"></path><path d="M15.67,11.46h0A4.35,4.35,0,1,0,20,15.81,4.35,4.35,0,0,0,15.66,11.46Zm-.05,5.65a1.3,1.3,0,1,1,1.3-1.3A1.31,1.31,0,0,1,15.62,17.11Z"></path><circle cx="5.24" cy="5.59" r="2"></circle></svg>